<svg height='100px' width='100px'  fill="#8b5cf6" xmlns="http://www.w3.org/2000/svg" xmlns:xlink="http://www.w3.org/1999/xlink" version="1.1" x="0px" y="0px" viewBox="0 0 64 64" style="enable-background:new 0 0 64 64;" xml:space="preserve"><polygon points="62,60 61,60 61,39 56,39 56,60 55,60 55,46 50,46 50,60 45,60 45,49 40,49 40,60 39,60 39,56 34,56 34,60 29,60   29,42 24,42 24,60 23,60 23,50 18,50 18,60 14,60 14,46 9,46 9,60 8,60 8,53 3,53 3,60 2,60 2,62 62,62 "></polygon><polygon points="17.082,32.215 26.485,37.857 42.354,42.129 53.279,29.218 61.594,32.914 62.406,31.086 52.721,26.782   41.646,39.871 27.394,36.07 16.918,29.785 1.375,42.219 2.625,43.781 "></polygon><rect x="40" y="24" width="10" height="2"></rect><rect x="40" y="20" width="10" height="2"></rect><rect x="40" y="16" width="10" height="2"></rect><rect x="52" y="2" width="10" height="2"></rect><rect x="52" y="6" width="10" height="2"></rect><rect x="52" y="10" width="10" height="2"></rect><rect x="52" y="14" width="2" height="2"></rect><rect x="56" y="14" width="2" height="2"></rect><rect x="60" y="14" width="2" height="2"></rect><path d="M9.097,14.962C9.036,14.65,9,14.33,9,14c0-2.414,1.721-4.434,4-4.899v-7.05C6.85,2.562,2,7.721,2,14  c0,1.259,0.199,2.489,0.578,3.672L9.097,14.962z"></path><path d="M18.998,13.985l6.918,1.381C25.967,14.915,26,14.46,26,14c0-1.084-0.149-2.142-0.427-3.159L32.414,4H50V2H31.586  l-6.781,6.781C22.966,4.968,19.25,2.394,15,2.043v7.059C17.274,9.565,18.991,11.577,18.998,13.985z"></path><path d="M9.867,16.808L3.35,19.517c1.194,2.29,3.106,4.15,5.427,5.279l2.54-6.591C10.746,17.839,10.249,17.368,9.867,16.808z"></path><path d="M14,26c3.095,0,6.05-1.204,8.267-3.319L25.586,26H38v-2H26.414l-2.82-2.82c0.868-1.161,1.519-2.466,1.918-3.856  l-6.906-1.378C17.845,17.739,16.067,19,14,19c-0.279,0-0.548-0.038-0.815-0.082l-2.544,6.6C11.732,25.835,12.857,26,14,26z"></path></svg>