<svg height='100px' width='100px'  fill="#8b5cf6" xmlns:x="http://ns.adobe.com/Extensibility/1.0/" xmlns:i="http://ns.adobe.com/AdobeIllustrator/10.0/" xmlns:graph="http://ns.adobe.com/Graphs/1.0/" xmlns="http://www.w3.org/2000/svg" xmlns:xlink="http://www.w3.org/1999/xlink" version="1.1" x="0px" y="0px" viewBox="0 0 100 100" style="enable-background:new 0 0 100 100;" xml:space="preserve"><g><g i:extraneous="self"><g><path d="M69.8,40.7c0-0.7-0.4-1.3-1-1.6l-18.1-7.5c-0.4-0.2-0.9-0.2-1.3,0l-18.1,7.5c-0.6,0.3-1,0.9-1,1.6s0.4,1.3,1,1.6l7.5,3.1     l-7.5,3.1c-0.6,0.3-1,0.9-1,1.6s0.4,1.3,1,1.6l7.5,3.1l-7.5,3.1c-0.6,0.3-1,0.9-1,1.6s0.4,1.3,1,1.6l18.1,7.5     c0.2,0.1,0.4,0.1,0.6,0.1c0.2,0,0.4,0,0.6-0.1l18.1-7.5c0.6-0.3,1-0.9,1-1.6s-0.4-1.3-1-1.6l-7.5-3.1l7.5-3.1     c0.6-0.3,1-0.9,1-1.6s-0.4-1.3-1-1.6l-7.5-3.1l7.5-3.1C69.4,42,69.8,41.3,69.8,40.7z M63.7,59.3L50,65l-13.7-5.7l6.8-2.8l6.2,2.6     c0.2,0.1,0.4,0.1,0.6,0.1c0.2,0,0.4,0,0.6-0.1l6.2-2.6L63.7,59.3z M63.7,50L50,55.7L36.3,50l6.8-2.8l6.2,2.6     c0.2,0.1,0.4,0.1,0.6,0.1c0.2,0,0.4,0,0.6-0.1l6.2-2.6L63.7,50z M50,46.4l-13.7-5.7L50,35l13.7,5.7L50,46.4z"></path><path d="M48.3,16.5v6.8c0,0.9,0.8,1.7,1.7,1.7c0.9,0,1.7-0.8,1.7-1.7v-6.8c3.1-0.8,5.4-3.5,5.4-6.9c0-3.9-3.2-7.1-7.1-7.1     s-7.1,3.2-7.1,7.1C42.9,12.9,45.2,15.7,48.3,16.5z M50,5.9c2.1,0,3.7,1.7,3.7,3.7s-1.7,3.7-3.7,3.7c-2.1,0-3.7-1.7-3.7-3.7     S47.9,5.9,50,5.9z"></path><path d="M21.4,28.5c1.3,0,2.6-0.4,3.7-1.1l4.8,4.8c0.3,0.3,0.8,0.5,1.2,0.5c0.4,0,0.9-0.2,1.2-0.5c0.7-0.7,0.7-1.7,0-2.4     l-4.8-4.8c0.7-1.1,1.1-2.3,1.1-3.7c0-3.9-3.2-7.1-7.1-7.1s-7.1,3.2-7.1,7.1S17.5,28.5,21.4,28.5z M21.4,17.7     c2.1,0,3.7,1.7,3.7,3.7s-1.7,3.7-3.7,3.7s-3.7-1.7-3.7-3.7S19.4,17.7,21.4,17.7z"></path><path d="M16.5,51.7h6.8c0.9,0,1.7-0.8,1.7-1.7s-0.8-1.7-1.7-1.7h-6.8c-0.8-3.1-3.5-5.4-6.9-5.4c-3.9,0-7.1,3.2-7.1,7.1     c0,3.9,3.2,7.1,7.1,7.1C12.9,57.1,15.7,54.8,16.5,51.7z M9.6,53.7c-2.1,0-3.7-1.7-3.7-3.7s1.7-3.7,3.7-3.7s3.7,1.7,3.7,3.7     S11.7,53.7,9.6,53.7z"></path><path d="M29.9,67.7l-4.8,4.8c-1.1-0.7-2.3-1.1-3.7-1.1c-3.9,0-7.1,3.2-7.1,7.1c0,3.9,3.2,7.1,7.1,7.1s7.1-3.2,7.1-7.1     c0-1.3-0.4-2.6-1.1-3.7l4.8-4.8c0.7-0.7,0.7-1.7,0-2.4C31.6,67.1,30.6,67.1,29.9,67.7z M21.4,82.3c-2.1,0-3.7-1.7-3.7-3.7     c0-2.1,1.7-3.7,3.7-3.7s3.7,1.7,3.7,3.7C25.2,80.6,23.5,82.3,21.4,82.3z"></path><path d="M51.7,83.5v-6.8c0-0.9-0.8-1.7-1.7-1.7c-0.9,0-1.7,0.8-1.7,1.7v6.8c-3.1,0.8-5.4,3.5-5.4,6.9c0,3.9,3.2,7.1,7.1,7.1     s7.1-3.2,7.1-7.1C57.1,87.1,54.8,84.3,51.7,83.5z M50,94.1c-2.1,0-3.7-1.7-3.7-3.7c0-2.1,1.7-3.7,3.7-3.7c2.1,0,3.7,1.7,3.7,3.7     C53.7,92.5,52.1,94.1,50,94.1z"></path><path d="M78.6,71.5c-1.3,0-2.6,0.4-3.7,1.1l-4.8-4.8c-0.7-0.7-1.7-0.7-2.4,0s-0.7,1.7,0,2.4l4.8,4.8c-0.7,1.1-1.1,2.3-1.1,3.7     c0,3.9,3.2,7.1,7.1,7.1c3.9,0,7.1-3.2,7.1-7.1C85.7,74.6,82.5,71.5,78.6,71.5z M78.6,82.3c-2.1,0-3.7-1.7-3.7-3.7     c0-2.1,1.7-3.7,3.7-3.7c2.1,0,3.7,1.7,3.7,3.7C82.3,80.6,80.6,82.3,78.6,82.3z"></path><path d="M90.4,42.9c-3.3,0-6.1,2.3-6.9,5.4h-6.8c-0.9,0-1.7,0.8-1.7,1.7s0.8,1.7,1.7,1.7h6.8c0.8,3.1,3.5,5.4,6.9,5.4     c3.9,0,7.1-3.2,7.1-7.1C97.5,46.1,94.3,42.9,90.4,42.9z M90.4,53.7c-2.1,0-3.7-1.7-3.7-3.7s1.7-3.7,3.7-3.7     c2.1,0,3.7,1.7,3.7,3.7S92.5,53.7,90.4,53.7z"></path><path d="M68.9,32.8c0.4,0,0.9-0.2,1.2-0.5l4.8-4.8c1.1,0.7,2.3,1.1,3.7,1.1c3.9,0,7.1-3.2,7.1-7.1s-3.2-7.1-7.1-7.1     c-3.9,0-7.1,3.2-7.1,7.1c0,1.3,0.4,2.6,1.1,3.7l-4.8,4.8c-0.7,0.7-0.7,1.7,0,2.4C68.1,32.6,68.5,32.8,68.9,32.8z M78.6,17.7     c2.1,0,3.7,1.7,3.7,3.7s-1.7,3.7-3.7,3.7c-2.1,0-3.7-1.7-3.7-3.7S76.5,17.7,78.6,17.7z"></path></g></g></g></svg>