<svg height='100px' width='100px'  fill="#f59e0b" xmlns="http://www.w3.org/2000/svg" viewBox="0 0 24 24" x="0px" y="0px"><title>collect,arrows,target</title><path d="M15.71,4.29a1,1,0,0,0-1.41,0L13,5.59V3a1,1,0,0,0-2,0V5.59L9.71,4.29A1,1,0,0,0,8.29,5.71l3,3a1,1,0,0,0,1.42,0l3-3A1,1,0,0,0,15.71,4.29Z"></path><path d="M12.71,15.29a1,1,0,0,0-1.42,0l-3,3a1,1,0,0,0,1.41,1.41L11,18.41V21a1,1,0,0,0,2,0V18.41l1.29,1.29a1,1,0,0,0,1.41-1.41Z"></path><path d="M8.92,12.38a1,1,0,0,0-.22-1.09l-3-3A1,1,0,0,0,4.29,9.71L5.59,11H3a1,1,0,0,0,0,2H5.59L4.29,14.29a1,1,0,1,0,1.41,1.41l3-3A1,1,0,0,0,8.92,12.38Z"></path><path d="M21,11H18.41l1.29-1.29a1,1,0,0,0-1.41-1.41l-3,3a1,1,0,0,0,0,1.42l3,3a1,1,0,0,0,1.41-1.41L18.41,13H21a1,1,0,0,0,0-2Z"></path><path d="M12.55,11.17a.55.55,0,0,0-.17-.09.62.62,0,0,0-.19-.06,1,1,0,0,0-.9.27A1,1,0,0,0,11,12a1,1,0,0,0,.07.38,1.25,1.25,0,0,0,.22.32A1,1,0,0,0,12,13a1,1,0,0,0,1-1,1,1,0,0,0-.3-.71A.63.63,0,0,0,12.55,11.17Z"></path></svg>